<mxfile host="app.diagrams.net" modified="2025-05-09T13:47:19Z" agent="Mozilla/5.0" version="21.2.9" type="device"><diagram name="Final Test" id="final-test"><mxGraphModel><root><mxCell id="0"/><mxCell id="1" parent="0"/><mxCell id="2" value="Fixed Workflow Test" style="rounded=1;whiteSpace=wrap;html=1;fillColor=#d5e8d4;strokeColor=#82b366;" vertex="1" parent="1"><mxGeometry x="350" y="230" width="150" height="80" as="geometry"/></mxCell></root></mxGraphModel></diagram></mxfile>
